<svg id="SvgjsSvg1015" width="100%" height="100%" xmlns="http://www.w3.org/2000/svg" version="1.1" xlink="http://www.w3.org/1999/xlink" xmlns:svgjs="http://svgjs.com/svgjs" preserveAspectRatio="xMidYMid meet" viewBox="4.056602449509228e-7 9.388494390805135e-7 299.9999694824219 57.338104248046875" overflow="visible"><defs id="SvgjsDefs1016"></defs><g id="SvgjsG1017" transform="scale(0.8424145162322382)" opacity="1"><g id="SvgjsG1018" class="RQProUUgMp" transform="translate(-7.015526892856978, -2.3634991699273473) scale(0.7279027326660844)" light-content="false" non-strokable="false" fill="#103193"><path d="M36.703 11.011L9.638 26.636v12.121l27.065-15.626 27.064 15.626V26.636zm26.595 78.081L36.233 73.467V61.348l27.065 15.625 27.064-15.625v12.119z"></path><path d="M9.638 42.012l27.065-15.626 10.495 6.06-27.064 15.626v31.252l-10.496-6.06zm67.445-23.14L50.018 3.247l-10.496 6.06 27.064 15.625v31.252l10.497-6.06z"></path><path d="M23.01 81.127l.001-31.251 10.496-6.06v31.252l27.064 15.625-10.496 6.061zm67.352-23.035V26.84l-10.496-6.06v31.251L52.802 67.658l10.496 6.061z"></path></g><g id="SvgjsG1019" class="text" transform="translate(220.72922070159763, 54.881998931884766) scale(1)" light-content="false" fill="#292929"><path d="M-134.43 -0.54C-134.07 -0.18 -133.51 0 -132.75 0L-120.15 0C-114.19 0 -109.54 -1.76 -106.2 -5.28C-102.86 -8.8 -101.19 -14.04 -101.19 -21C-101.19 -27.96 -102.86 -33.2 -106.2 -36.72C-109.54 -40.24 -114.19 -42 -120.15 -42L-132.75 -42C-133.51 -42 -134.07 -41.83 -134.43 -41.49C-134.79 -41.15 -134.97 -40.58 -134.97 -39.78L-134.97 -2.22C-134.97 -1.46 -134.79 -0.9 -134.43 -0.54ZM-120.33 -6.72L-127.05 -6.72L-127.05 -35.28L-120.33 -35.28C-116.85 -35.28 -114.14 -34.09 -112.2 -31.71C-110.26 -29.33 -109.29 -25.76 -109.29 -21C-109.29 -16.24 -110.26 -12.67 -112.2 -10.29C-114.14 -7.91 -116.85 -6.72 -120.33 -6.72Z M-91.65 -3.69C-89.13 -0.95 -85.29 0.42 -80.13 0.42C-78.65 0.42 -77.06 0.24 -75.36 -0.12C-73.66 -0.48 -72.23 -0.98 -71.07 -1.62C-69.91 -2.26 -69.33 -2.96 -69.33 -3.72C-69.33 -4.28 -69.66 -5.09 -70.32 -6.15C-70.98 -7.21 -71.57 -7.74 -72.09 -7.74C-72.25 -7.74 -72.65 -7.6 -73.29 -7.32C-75.53 -6.2 -77.73 -5.64 -79.89 -5.64C-82.29 -5.64 -84.12 -6.23 -85.38 -7.41C-86.64 -8.59 -87.37 -10.5 -87.57 -13.14L-71.01 -13.14C-70.65 -13.14 -70.11 -13.55 -69.39 -14.37C-68.67 -15.19 -68.31 -15.82 -68.31 -16.26C-68.31 -21.02 -69.36 -24.8 -71.46 -27.6C-73.56 -30.4 -76.77 -31.8 -81.09 -31.8C-85.65 -31.8 -89.18 -30.46 -91.68 -27.78C-94.18 -25.1 -95.43 -21 -95.43 -15.48C-95.43 -10.36 -94.17 -6.43 -91.65 -3.69ZM-75.81 -18.48L-87.57 -18.48C-87.01 -23.32 -84.87 -25.74 -81.15 -25.74C-79.39 -25.74 -78.06 -25.1 -77.16 -23.82C-76.26 -22.54 -75.81 -20.76 -75.81 -18.48Z M-59.49 -3.48C-57.01 -0.88 -53.25 0.42 -48.21 0.42C-47.01 0.42 -45.61 0.28 -44.01 0C-42.41 -0.28 -41.02 -0.71 -39.84 -1.29C-38.66 -1.87 -38.07 -2.56 -38.07 -3.36C-38.07 -3.96 -38.39 -4.78 -39.03 -5.82C-39.67 -6.86 -40.27 -7.38 -40.83 -7.38C-40.95 -7.38 -41.25 -7.28 -41.73 -7.08C-42.77 -6.64 -43.74 -6.29 -44.64 -6.03C-45.54 -5.77 -46.63 -5.64 -47.91 -5.64C-50.55 -5.64 -52.45 -6.46 -53.61 -8.1C-54.77 -9.74 -55.35 -12.3 -55.35 -15.78C-55.35 -19.22 -54.74 -21.74 -53.52 -23.34C-52.3 -24.94 -50.43 -25.74 -47.91 -25.74C-45.95 -25.74 -44.05 -25.28 -42.21 -24.36C-41.65 -24.12 -41.35 -24 -41.31 -24C-40.87 -24 -40.3 -24.55 -39.6 -25.65C-38.9 -26.75 -38.55 -27.58 -38.55 -28.14C-38.55 -29.22 -39.55 -30.1 -41.55 -30.78C-43.55 -31.46 -45.75 -31.8 -48.15 -31.8C-52.99 -31.8 -56.71 -30.48 -59.31 -27.84C-61.91 -25.2 -63.21 -21.12 -63.21 -15.6C-63.21 -10.12 -61.97 -6.08 -59.49 -3.48Z M-31.77 -1.95C-30.17 -0.37 -27.85 0.42 -24.81 0.42C-22.53 0.42 -20.62 -0.06 -19.08 -1.02C-17.54 -1.98 -16.35 -3 -15.51 -4.08C-15.47 -3.84 -15.38 -3.38 -15.24 -2.7C-15.1 -2.02 -14.89 -1.39 -14.61 -0.81C-14.33 -0.23 -13.87 0.06 -13.23 0.06C-12.19 0.06 -11.01 -0.09 -9.69 -0.39C-8.37 -0.69 -7.71 -1.12 -7.71 -1.68C-7.71 -1.96 -7.83 -2.73 -8.07 -3.99C-8.31 -5.25 -8.43 -7.24 -8.43 -9.96L-8.43 -22.02C-8.43 -25.06 -9.46 -27.45 -11.52 -29.19C-13.58 -30.93 -16.73 -31.8 -20.97 -31.8C-23.01 -31.8 -24.91 -31.6 -26.67 -31.2C-28.43 -30.8 -29.82 -30.29 -30.84 -29.67C-31.86 -29.05 -32.37 -28.42 -32.37 -27.78C-32.37 -27.22 -32.04 -26.38 -31.38 -25.26C-30.72 -24.14 -30.13 -23.58 -29.61 -23.58C-29.49 -23.58 -29.01 -23.77 -28.17 -24.15C-27.33 -24.53 -26.35 -24.89 -25.23 -25.23C-24.11 -25.57 -22.81 -25.74 -21.33 -25.74C-17.77 -25.74 -15.99 -24.42 -15.99 -21.78L-15.99 -19.5C-28.11 -19.46 -34.17 -15.76 -34.17 -8.4C-34.17 -5.68 -33.37 -3.53 -31.77 -1.95ZM-18.93 -6.75C-20.09 -6.01 -21.37 -5.64 -22.77 -5.64C-23.97 -5.64 -24.89 -5.95 -25.53 -6.57C-26.17 -7.19 -26.49 -8.04 -26.49 -9.12C-26.49 -11 -25.56 -12.31 -23.7 -13.05C-21.84 -13.79 -19.27 -14.16 -15.99 -14.16L-15.99 -9.6C-16.79 -8.44 -17.77 -7.49 -18.93 -6.75Z M0.21 -1.62C0.21 -0.46 1.27 0.12 3.39 0.12L4.53 0.12C6.69 0.12 7.77 -0.46 7.77 -1.62L7.77 -21.78C8.13 -22.42 8.77 -23.12 9.69 -23.88C10.61 -24.64 11.65 -25.02 12.81 -25.02C13.41 -25.02 14 -24.93 14.58 -24.75C15.16 -24.57 15.55 -24.48 15.75 -24.48C16.23 -24.48 16.63 -25.02 16.95 -26.1C17.27 -27.18 17.43 -28.12 17.43 -28.92C17.43 -29.68 17.16 -30.35 16.62 -30.93C16.08 -31.51 15.19 -31.8 13.95 -31.8C11.35 -31.8 9.13 -30.3 7.29 -27.3C7.25 -27.54 7.16 -27.97 7.02 -28.59C6.88 -29.21 6.67 -29.8 6.39 -30.36C6.11 -30.92 5.65 -31.2 5.01 -31.2C3.97 -31.2 2.79 -31.05 1.47 -30.75C0.15 -30.45 -0.51 -30.02 -0.51 -29.46C-0.51 -29.18 -0.39 -28.42 -0.15 -27.18C0.09 -25.94 0.21 -23.98 0.21 -21.3Z M25.38 -1.8C26.92 -0.32 28.97 0.42 31.53 0.42C35.05 0.42 36.81 -0.42 36.81 -2.1C36.81 -2.58 36.65 -3.33 36.33 -4.35C36.01 -5.37 35.61 -5.88 35.13 -5.88C34.93 -5.88 34.65 -5.84 34.29 -5.76C33.93 -5.68 33.55 -5.64 33.15 -5.64C32.31 -5.64 31.68 -5.88 31.26 -6.36C30.84 -6.84 30.63 -7.68 30.63 -8.88L30.63 -25.32L34.29 -25.32C34.85 -25.32 35.26 -25.52 35.52 -25.92C35.78 -26.32 35.91 -26.98 35.91 -27.9L35.91 -28.8C35.91 -29.72 35.78 -30.38 35.52 -30.78C35.26 -31.18 34.85 -31.38 34.29 -31.38L30.63 -31.38L30.63 -37.26C30.63 -38.42 29.77 -39 28.05 -39L26.61 -39C24.97 -39 24.05 -38.42 23.85 -37.26L23.07 -31.38L21.45 -31.38C20.89 -31.38 20.48 -31.18 20.22 -30.78C19.96 -30.38 19.83 -29.72 19.83 -28.8L19.83 -27.9C19.83 -26.98 19.96 -26.32 20.22 -25.92C20.48 -25.52 20.89 -25.32 21.45 -25.32L23.07 -25.32L23.07 -8.76C23.07 -5.6 23.84 -3.28 25.38 -1.8Z M57.51 -1.62C57.51 -0.46 58.57 0.12 60.69 0.12L62.19 0.12C64.31 0.12 65.37 -0.46 65.37 -1.62L65.37 -17.16L68.79 -17.16C70.79 -17.16 72.28 -16.84 73.26 -16.2C74.24 -15.56 75.09 -14.42 75.81 -12.78L80.49 -1.02C80.81 -0.26 81.85 0.12 83.61 0.12L85.41 0.12C87.57 0.12 88.65 -0.26 88.65 -1.02C88.65 -1.14 88.57 -1.48 88.41 -2.04L83.31 -14.76C82.67 -16.36 81.95 -17.71 81.15 -18.81C80.35 -19.91 79.51 -20.62 78.63 -20.94L78.63 -21.18C80.79 -22.02 82.49 -23.28 83.73 -24.96C84.97 -26.64 85.59 -28.64 85.59 -30.96C85.59 -34.64 84.38 -37.4 81.96 -39.24C79.54 -41.08 75.83 -42 70.83 -42L59.67 -42C58.91 -42 58.36 -41.82 58.02 -41.46C57.68 -41.1 57.51 -40.54 57.51 -39.78ZM71.85 -23.94L65.37 -23.94L65.37 -35.28L71.43 -35.28C73.31 -35.28 74.79 -34.81 75.87 -33.87C76.95 -32.93 77.49 -31.6 77.49 -29.88C77.49 -28.28 76.93 -26.89 75.81 -25.71C74.69 -24.53 73.37 -23.94 71.85 -23.94Z M111.69 -11.64C112.13 -10.96 112.81 -10.62 113.73 -10.62L115.65 -10.62C116.57 -10.62 117.25 -10.96 117.69 -11.64L126.15 -26.58C126.63 -27.26 127.09 -28.08 127.53 -29.04L127.77 -28.98C127.73 -28.3 127.71 -27.28 127.71 -25.92L127.71 -1.62C127.71 -0.46 128.77 0.12 130.89 0.12L132.21 0.12C134.33 0.12 135.39 -0.46 135.39 -1.62L135.39 -40.38C135.39 -41.54 134.33 -42.12 132.21 -42.12L129.45 -42.12C127.77 -42.12 126.67 -41.64 126.15 -40.68L115.65 -22.32C115.17 -21.48 114.85 -20.8 114.69 -20.28C114.45 -20.92 114.13 -21.58 113.73 -22.26L103.29 -40.68C102.77 -41.64 101.65 -42.12 99.93 -42.12L97.11 -42.12C94.99 -42.12 93.93 -41.54 93.93 -40.38L93.93 -1.62C93.93 -0.46 94.99 0.12 97.11 0.12L98.43 0.12C100.55 0.12 101.61 -0.46 101.61 -1.62L101.61 -26.04C101.61 -27.4 101.59 -28.42 101.55 -29.1L101.79 -29.16C102.23 -28.2 102.69 -27.38 103.17 -26.7Z"></path></g></g></svg>